<mxfile host="app.diagrams.net" modified="2023-10-06T14:59:34.194Z" agent="Mozilla/5.0 (X11; Linux x86_64; rv:109.0) Gecko/20100101 Firefox/118.0" version="22.0.3" etag="jS0RiTPFdBeJEJxVfrs4" type="github">
  <diagram name="Страница — 1" id="pQFt7UBYZ4boE40u2RLS">
    <mxGraphModel>
      <root>
        <mxCell id="0" />
        <mxCell id="1" parent="0" />
      </root>
    </mxGraphModel>
  </diagram>
</mxfile>
